PathFileType	4	(X/Y/Z)	./resultDataOpenSim/trcMotMarkerGrf/sub06/qtm-15-04.trc
DataRate	CameraRate	NumFrames	NumMarkers	Units	OrigDataRate	OrigDataStartFrame	OrigNumFrames
250.000000	250.000000	6	24	m	250.000000	467	533
Frame#	Time	L.Toe.Tip			R.Toe.Tip			L.Ankle.Lat			R.Ankle.Lat			L.Ankle.Med			R.Ankle.Med			L.Heel			R.Heel			L.Knee.Lat			R.Knee.Lat			L.Knee.Med			R.Knee.Med			L.Thigh.Upper			R.Thigh.Upper			L.ASIS			R.ASIS			V.Sacral			L.Acromium			R.Acromium			C7			L.Elbow			R.Elbow			L.Wrist.Lat			R.Wrist.Lat
		X1	Y1	Z1	X2	Y2	Z2	X3	Y3	Z3	X4	Y4	Z4	X5	Y5	Z5	X6	Y6	Z6	X7	Y7	Z7	X8	Y8	Z8	X9	Y9	Z9	X10	Y10	Z10	X11	Y11	Z11	X12	Y12	Z12	X13	Y13	Z13	X14	Y14	Z14	X15	Y15	Z15	X16	Y16	Z16	X17	Y17	Z17	X18	Y18	Z18	X19	Y19	Z19	X20	Y20	Z20	X21	Y21	Z21	X22	Y22	Z22	X23	Y23	Z23	X24	Y24	Z24

467	1.864	1.7598329	0.034085672	-0.065803061	1.2553326	0.088686298	0.093865176	1.6355192	0.065784386	-0.096591618	1.2401576	0.22865374	0.11561289	1.6336798	0.08197352	-0.0099047906	1.282603	0.21811148	0.03784451	1.5574113	0.039544812	-0.056808779	1.2132456	0.2677301	0.049043765	1.6980921	0.4364175	-0.11312676	1.5710003	0.41479789	0.16525596	1.6565213	0.43865004	0.0020777319	1.572013	0.39400431	0.033144012	1.5896712	0.81663529	-0.18783579	1.5100847	0.77484124	0.14315019	1.6463817	0.85850304	-0.1288496	1.6108251	0.83866592	0.11624966	1.4447282	0.92367776	-0.024819512	1.5814617	1.3241344	-0.20152796	1.5570887	1.3222642	0.16222556	1.4886812	1.3638951	-0.027004706	1.5091147	1.0130954	-0.25187181	1.5277813	0.99693239	0.23136465	1.6359245	0.80878191	-0.30901569	1.7532084	0.89440046	0.18583251
468	1.868	1.7598048	0.03408508	-0.065789577	1.270848	0.089214754	0.095523902	1.6354793	0.065878569	-0.096560894	1.2528884	0.22888475	0.11642806	1.6335982	0.082073048	-0.0098960719	1.295239	0.21875036	0.038618722	1.5573399	0.039638863	-0.056798822	1.2249703	0.26719546	0.049711725	1.6989436	0.43658531	-0.11295736	1.581776	0.41757295	0.16579354	1.6567321	0.43883658	0.0021588121	1.583115	0.39630336	0.03362536	1.5935904	0.81735002	-0.18800187	1.5189811	0.77630927	0.14211232	1.6510451	0.85961442	-0.12934004	1.6159141	0.84091174	0.11618859	1.4490908	0.9254681	-0.02492776	1.5865082	1.325994	-0.20142587	1.5619866	1.3239589	0.16237919	1.4938396	1.3655481	-0.026906824	1.5162184	1.0139149	-0.25161939	1.5308842	0.99883771	0.23100587	1.6481602	0.81161286	-0.30738095	1.7533703	0.89085384	0.18795868
469	1.872	1.7597805	0.034086983	-0.065775207	1.2864598	0.08960129	0.09715341	1.6354202	0.066020421	-0.096590961	1.2657849	0.22886749	0.11726876	1.6335408	0.082172115	-0.0098766796	1.3080436	0.21912716	0.039525389	1.5572464	0.039718945	-0.05682168	1.2368034	0.26643377	0.050441656	1.6997141	0.43676951	-0.11277264	1.5925139	0.42040413	0.16629059	1.6569783	0.4389869	0.0022693394	1.5941037	0.3987048	0.034060351	1.5972719	0.81811405	-0.18817964	1.5287761	0.77771906	0.14085166	1.6556911	0.86074862	-0.12985635	1.6209363	0.84314871	0.11609588	1.4526572	0.92737348	-0.024906059	1.5915306	1.3278701	-0.20133108	1.5669174	1.3256359	0.16251758	1.4989765	1.3671931	-0.026814364	1.5233855	1.0147688	-0.251453	1.533787	1.0007685	0.23069096	1.6603686	0.8145602	-0.30569263	1.7533879	0.88743153	0.19013588
470	1.876	1.7597666	0.034090383	-0.065760125	1.3021957	0.089865679	0.098754667	1.6353502	0.06621468	-0.096695143	1.2787213	0.22859572	0.11812607	1.6335265	0.082289826	-0.0098498628	1.3210854	0.21926125	0.040662482	1.557181	0.039811227	-0.056774666	1.2485747	0.26540568	0.051429435	1.7004166	0.43694463	-0.11257363	1.6032302	0.42327951	0.16674557	1.6574996	0.43912992	0.0024544361	1.6050368	0.40121296	0.034458055	1.6009816	0.81891949	-0.18832596	1.5386768	0.77916471	0.13963534	1.6603243	0.8619025	-0.1303892	1.6258929	0.84536597	0.115939	1.4556707	0.92931912	-0.024847055	1.5965358	1.3297514	-0.20124588	1.5718759	1.3272931	0.16263183	1.5040995	1.3688173	-0.026719142	1.5306356	1.0156498	-0.2513943	1.536531	1.0027411	0.23039935	1.6723071	0.81764412	-0.30398191	1.7532736	0.88413265	0.19236132
471	1.88	1.7597661	0.03409328	-0.065745778	1.3181097	0.090035354	0.10031834	1.6353003	0.066439614	-0.096809402	1.2917115	0.22810293	0.11899239	1.6335518	0.08243951	-0.0098219477	1.3343412	0.21918367	0.04199306	1.5571837	0.039943463	-0.056597822	1.2601164	0.2640978	0.05288626	1.7010643	0.43709434	-0.11236678	1.6139297	0.42618704	0.16716154	1.6584068	0.43927414	0.0027361527	1.6160667	0.40382288	0.034827095	1.6048721	0.81975035	-0.18841605	1.5478303	0.78074952	0.13878338	1.6649446	0.8630684	-0.13092464	1.6307626	0.84755652	0.11568287	1.4588403	0.93116147	-0.02486719	1.6015276	1.3316275	-0.20116837	1.5767463	1.3289465	0.16270682	1.509217	1.3704087	-0.026606887	1.5379332	1.0165548	-0.25141368	1.539329	1.004751	0.23010626	1.6839495	0.82086614	-0.30224877	1.7530385	0.88094915	0.19462112
472	1.884	1.759776	0.034094299	-0.065734877	1.334229	0.090125584	0.1018417	1.6352985	0.066660509	-0.096849933	1.3048969	0.22742078	0.11987032	1.6336103	0.082619265	-0.0097970618	1.3476133	0.21893027	0.043235837	1.5572381	0.04011159	-0.056351232	1.2714364	0.2625314	0.054781083	1.7016685	0.43721314	-0.11216306	1.6245939	0.42911321	0.16754711	1.6595494	0.43940301	0.0030868855	1.6272184	0.40652429	0.035178605	1.6088252	0.82059832	-0.18846529	1.5556024	0.78257081	0.13861377	1.6695487	0.86424001	-0.13144897	1.6355693	0.8497139	0.11531766	1.4627493	0.93281789	-0.025008366	1.6065073	1.3334889	-0.20109156	1.581312	1.3306261	0.16272642	1.5143311	1.371958	-0.026471183	1.5452392	1.0174793	-0.2514689	1.5422749	1.0067706	0.2297986	1.6954162	0.82421175	-0.3004756	1.7526947	0.87787246	0.19690166
